<svg xmlns="http://www.w3.org/2000/svg" xmlns:xlink="http://www.w3.org/1999/xlink" width="64" zoomAndPan="magnify" viewBox="0 0 48 48" height="64" preserveAspectRatio="xMidYMid meet" version="1.2"><defs><clipPath id="1c691fb810"><path d="M 0.488281 13.199219 L 26.9375 13.199219 L 26.9375 46.996094 L 0.488281 46.996094 Z M 0.488281 13.199219 "/></clipPath><clipPath id="f981632be5"><path d="M 32 0 L 47.507812 0 L 47.507812 18 L 32 18 Z M 32 0 "/></clipPath></defs><g id="bd31965afc"><g clip-rule="nonzero" clip-path="url(#1c691fb810)"><path style=" stroke:none;fill-rule:evenodd;fill:#10a983;fill-opacity:1;" d="M 26.679688 44.4375 C 26.679688 35.421875 20.8125 28.117188 13.585938 28.117188 C 6.355469 28.117188 0.488281 35.421875 0.488281 44.4375 C 0.488281 45.84375 6.355469 46.988281 13.585938 46.988281 C 20.8125 46.988281 26.679688 45.84375 26.679688 44.4375 Z M 13.585938 13.207031 C 17.527344 13.207031 20.71875 16.398438 20.71875 20.339844 C 20.71875 24.285156 17.527344 27.476562 13.585938 27.476562 C 9.644531 27.476562 6.449219 24.285156 6.449219 20.339844 C 6.449219 16.398438 9.644531 13.207031 13.585938 13.207031 Z M 13.585938 13.207031 "/></g><g style="fill:#10a983;fill-opacity:1;"><g transform="translate(16.901326, 17.266198)"><path style="stroke:none" d="M 10.125 -3.453125 C 10.707031 -3.453125 11.269531 -3.535156 11.8125 -3.703125 C 12.363281 -3.878906 12.765625 -4.050781 13.015625 -4.21875 L 13.40625 -4.484375 L 15.03125 -1.234375 C 14.976562 -1.191406 14.898438 -1.132812 14.796875 -1.0625 C 14.703125 -1 14.484375 -0.875 14.140625 -0.6875 C 13.796875 -0.507812 13.425781 -0.351562 13.03125 -0.21875 C 12.644531 -0.0820312 12.132812 0.0351562 11.5 0.140625 C 10.863281 0.242188 10.207031 0.296875 9.53125 0.296875 C 7.976562 0.296875 6.503906 -0.0820312 5.109375 -0.84375 C 3.710938 -1.601562 2.585938 -2.648438 1.734375 -3.984375 C 0.890625 -5.328125 0.46875 -6.773438 0.46875 -8.328125 C 0.46875 -9.503906 0.71875 -10.632812 1.21875 -11.71875 C 1.71875 -12.800781 2.382812 -13.726562 3.21875 -14.5 C 4.050781 -15.269531 5.019531 -15.882812 6.125 -16.34375 C 7.226562 -16.800781 8.363281 -17.03125 9.53125 -17.03125 C 10.613281 -17.03125 11.609375 -16.898438 12.515625 -16.640625 C 13.429688 -16.390625 14.078125 -16.132812 14.453125 -15.875 L 15.03125 -15.5 L 13.40625 -12.25 C 13.3125 -12.332031 13.171875 -12.429688 12.984375 -12.546875 C 12.796875 -12.660156 12.414062 -12.8125 11.84375 -13 C 11.28125 -13.1875 10.707031 -13.28125 10.125 -13.28125 C 9.195312 -13.28125 8.367188 -13.128906 7.640625 -12.828125 C 6.910156 -12.535156 6.332031 -12.144531 5.90625 -11.65625 C 5.476562 -11.175781 5.15625 -10.65625 4.9375 -10.09375 C 4.71875 -9.53125 4.609375 -8.957031 4.609375 -8.375 C 4.609375 -7.101562 5.082031 -5.960938 6.03125 -4.953125 C 6.988281 -3.953125 8.351562 -3.453125 10.125 -3.453125 Z M 10.125 -3.453125 "/></g></g><g clip-rule="nonzero" clip-path="url(#f981632be5)"><g style="fill:#10a983;fill-opacity:1;"><g transform="translate(32.165848, 17.266198)"><path style="stroke:none" d="M 10.125 -3.453125 C 10.707031 -3.453125 11.269531 -3.535156 11.8125 -3.703125 C 12.363281 -3.878906 12.765625 -4.050781 13.015625 -4.21875 L 13.40625 -4.484375 L 15.03125 -1.234375 C 14.976562 -1.191406 14.898438 -1.132812 14.796875 -1.0625 C 14.703125 -1 14.484375 -0.875 14.140625 -0.6875 C 13.796875 -0.507812 13.425781 -0.351562 13.03125 -0.21875 C 12.644531 -0.0820312 12.132812 0.0351562 11.5 0.140625 C 10.863281 0.242188 10.207031 0.296875 9.53125 0.296875 C 7.976562 0.296875 6.503906 -0.0820312 5.109375 -0.84375 C 3.710938 -1.601562 2.585938 -2.648438 1.734375 -3.984375 C 0.890625 -5.328125 0.46875 -6.773438 0.46875 -8.328125 C 0.46875 -9.503906 0.71875 -10.632812 1.21875 -11.71875 C 1.71875 -12.800781 2.382812 -13.726562 3.21875 -14.5 C 4.050781 -15.269531 5.019531 -15.882812 6.125 -16.34375 C 7.226562 -16.800781 8.363281 -17.03125 9.53125 -17.03125 C 10.613281 -17.03125 11.609375 -16.898438 12.515625 -16.640625 C 13.429688 -16.390625 14.078125 -16.132812 14.453125 -15.875 L 15.03125 -15.5 L 13.40625 -12.25 C 13.3125 -12.332031 13.171875 -12.429688 12.984375 -12.546875 C 12.796875 -12.660156 12.414062 -12.8125 11.84375 -13 C 11.28125 -13.1875 10.707031 -13.28125 10.125 -13.28125 C 9.195312 -13.28125 8.367188 -13.128906 7.640625 -12.828125 C 6.910156 -12.535156 6.332031 -12.144531 5.90625 -11.65625 C 5.476562 -11.175781 5.15625 -10.65625 4.9375 -10.09375 C 4.71875 -9.53125 4.609375 -8.957031 4.609375 -8.375 C 4.609375 -7.101562 5.082031 -5.960938 6.03125 -4.953125 C 6.988281 -3.953125 8.351562 -3.453125 10.125 -3.453125 Z M 10.125 -3.453125 "/></g></g></g></g></svg>